<mxfile host="app.diagrams.net" modified="2023-11-10T11:03:49.252Z" agent="Mozilla/5.0 (Windows NT 10.0; Win64; x64) AppleWebKit/537.36 (KHTML, like Gecko) Chrome/118.0.0.0 Safari/537.36" etag="amPgBsdu2x1tIunrMSJ-" version="22.1.0" type="device">
  <diagram name="Page-1" id="m56pDKMrYxS6IAByJQad">
    <mxGraphModel dx="989" dy="553" grid="1" gridSize="10" guides="1" tooltips="1" connect="1" arrows="1" fold="1" page="1" pageScale="1" pageWidth="850" pageHeight="1100" math="0" shadow="0">
      <root>
        <mxCell id="0" />
        <mxCell id="1" parent="0" />
        <mxCell id="i7eYaONSk5TeVbpYV7l9-7" value="User" style="swimlane;childLayout=stackLayout;horizontal=1;startSize=30;horizontalStack=0;rounded=1;fontSize=14;fontStyle=0;strokeWidth=2;resizeParent=0;resizeLast=1;shadow=0;dashed=0;align=center;arcSize=4;whiteSpace=wrap;html=1;" vertex="1" parent="1">
          <mxGeometry x="160" y="280" width="160" height="180" as="geometry">
            <mxRectangle x="340" y="350" width="70" height="30" as="alternateBounds" />
          </mxGeometry>
        </mxCell>
        <mxCell id="i7eYaONSk5TeVbpYV7l9-8" value="+ id (Long)&lt;br&gt;+ name (String)&lt;br&gt;+ email (String)&lt;br&gt;+ jobTitle (String)&lt;br&gt;+ phone (String)&lt;br&gt;+ imageUrl (String)&lt;br&gt;+ employeeCode (String)" style="align=left;strokeColor=none;fillColor=none;spacingLeft=4;fontSize=12;verticalAlign=top;resizable=0;rotatable=0;part=1;html=1;" vertex="1" parent="i7eYaONSk5TeVbpYV7l9-7">
          <mxGeometry y="30" width="160" height="150" as="geometry" />
        </mxCell>
      </root>
    </mxGraphModel>
  </diagram>
</mxfile>
